<?xml version="1.0" encoding="UTF-8" standalone="no"?>
<svg width="32px" height="22px" viewBox="0 0 32 22" version="1.1" xmlns="http://www.w3.org/2000/svg" xmlns:xlink="http://www.w3.org/1999/xlink">
    <!-- Generator: Sketch 39.1 (31720) - http://www.bohemiancoding.com/sketch -->
    <title>icon / downloadCloud white</title>
    <desc>Created with Sketch.</desc>
    <defs></defs>
    <g id="Welcome" stroke="none" stroke-width="1" fill="none" fill-rule="evenodd">
        <g id="FYD" transform="translate(-1010.000000, -401.000000)" stroke="#FFFFFF" stroke-width="1.5">
            <g id="Video-Card" transform="translate(396.000000, 320.000000)">
                <g id="Download" transform="translate(600.000000, 62.000000)">
                    <g id="Download-Button" transform="translate(7.000000, 6.000000)">
                        <g id="icon-/-downloadCloud-white" transform="translate(8.000000, 14.000000)">
                            <path d="M28,11 L28,11 C28,7.7 25.3,5 22,5 L21.7,5 C20.8,2.1 18.2,0 15,0 C11.1,0 8,3.1 8,7 C6.1,7 4.5,8.3 4.1,10.1 C1.8,10.5 0,12.5 0,15 C0,17.8 2.2,20 5,20 L25,20 C27.8,20 30,17.8 30,15 C30,13.4 29.2,11.9 28,11 L28,11 Z" id="Stroke-1"></path>
                            <path d="M15,14.6 L15,6" id="Stroke-3"></path>
                            <polyline id="Stroke-5" points="11 11 15 15 19 11"></polyline>
                        </g>
                    </g>
                </g>
            </g>
        </g>
    </g>
</svg>