<?xml version="1.0" encoding="UTF-8" standalone="no"?>
<svg width="3px" height="19px" viewBox="0 0 3 19" version="1.1" xmlns="http://www.w3.org/2000/svg" xmlns:xlink="http://www.w3.org/1999/xlink">
    <!-- Generator: Sketch 39.1 (31720) - http://www.bohemiancoding.com/sketch -->
    <title>icon settingsHorizontal20 white</title>
    <desc>Created with Sketch.</desc>
    <defs></defs>
    <g id="Welcome" stroke="none" stroke-width="1" fill="none" fill-rule="evenodd">
        <g id="FYD" transform="translate(-1024.000000, -341.000000)">
            <g id="Video-Card" transform="translate(396.000000, 320.000000)">
                <g id="Options" transform="translate(600.000000, 1.000000)">
                    <g id="icon-settingsHorizontal20-white" transform="translate(30.000000, 30.000000) rotate(90.000000) translate(-30.000000, -30.000000) translate(20.000000, 20.000000)">
                        <path d="M1.5,9 C0.675,9 -1.77635684e-15,9.675 -1.77635684e-15,10.5 C-1.77635684e-15,11.325 0.675,12 1.5,12 C2.325,12 3,11.325 3,10.5 C3,9.675 2.325,9 1.5,9 L1.5,9 Z M17.5,9 C16.675,9 16,9.675 16,10.5 C16,11.325 16.675,12 17.5,12 C18.325,12 19,11.325 19,10.5 C19,9.675 18.325,9 17.5,9 L17.5,9 Z M9.5,9 C8.675,9 8,9.675 8,10.5 C8,11.325 8.675,12 9.5,12 C10.325,12 11,11.325 11,10.5 C11,9.675 10.325,9 9.5,9 L9.5,9 Z" id="Shape" fill="#FFFFFF"></path>
                        <g id="iconSize20" fill="#000000" opacity="0">
                            <rect x="0" y="3.55271368e-15" width="20" height="20"></rect>
                        </g>
                    </g>
                </g>
            </g>
        </g>
    </g>
</svg>